<svg width="49" height="49" viewBox="0 0 49 49" fill="none" xmlns="http://www.w3.org/2000/svg">
<rect x="0.692871" y="0.386719" width="47.7784" height="47.7784" rx="23.8892" fill="#B0B0B0" fill-opacity="0.76"/>
<path d="M25.6419 24.1743L24.3833 25.1268C24.0587 24.9595 23.7213 24.8192 23.3726 24.7087L23.1572 23.1453C23.1175 22.8646 22.8794 22.6562 22.5959 22.6562H20.1041C19.8206 22.6562 19.5811 22.8646 19.5428 23.1453L19.3273 24.7087C18.9787 24.8192 18.6413 24.9596 18.3167 25.1268L17.0595 24.1743C16.8327 24.0028 16.5166 24.0255 16.3168 24.2253L14.5549 25.9872C14.3551 26.187 14.3324 26.5045 14.5039 26.7299L15.4564 27.9871C15.2891 28.3117 15.1488 28.649 15.0383 28.9977L13.4749 29.2132C13.1942 29.2529 12.9858 29.491 12.9858 29.7745V32.2663C12.9858 32.5498 13.1942 32.7893 13.4749 32.8276L15.0383 33.043C15.1488 33.3917 15.2891 33.7291 15.4564 34.0537L14.5039 35.3123C14.3338 35.5377 14.3551 35.8552 14.5549 36.0551L16.3168 37.8169C16.5166 38.0168 16.8327 38.0395 17.0595 37.868L18.3167 36.9155C18.6413 37.0827 18.9786 37.2216 19.3273 37.3336L19.5428 38.897C19.5825 39.1776 19.8206 39.386 20.1041 39.386H22.5959C22.8794 39.386 23.1189 39.1776 23.1572 38.897L23.3726 37.3336C23.7213 37.223 24.0587 37.0827 24.3833 36.9155L25.6419 37.868C25.8687 38.0395 26.1848 38.0168 26.3847 37.8169L28.1465 36.0551C28.3464 35.8552 28.369 35.5377 28.1975 35.3123L27.245 34.0537C27.4123 33.7291 27.5512 33.3918 27.6632 33.043L29.2266 32.8276C29.5072 32.7879 29.7156 32.5498 29.7156 32.2663V29.7745C29.7156 29.491 29.5072 29.2515 29.2266 29.2132L27.6632 28.9977C27.5526 28.6491 27.4123 28.3117 27.245 27.9871L28.1975 26.7299C28.3676 26.5045 28.3464 26.187 28.1465 25.9872L26.3847 24.2253C26.1848 24.0255 25.8687 24.0028 25.6419 24.1743ZM26.0842 28.2281C26.3464 28.6704 26.5448 29.1494 26.6738 29.6512C26.7305 29.8737 26.9176 30.0396 27.1458 30.0722L28.5845 30.2706V31.7745L27.1458 31.9729C26.9176 32.0041 26.732 32.1714 26.6738 32.3939C26.5448 32.8957 26.3464 33.3747 26.0842 33.817C25.9665 34.0154 25.9807 34.2649 26.1196 34.4477L26.9956 35.6058L25.9325 36.6688L24.7745 35.7929C24.5917 35.6539 24.3422 35.6398 24.1438 35.7574C23.7015 36.0196 23.2224 36.2181 22.7207 36.3471C22.4981 36.4038 22.3323 36.5909 22.2997 36.8191L22.1013 38.2577H20.5974L20.399 36.8191C20.3678 36.5909 20.2005 36.4052 19.978 36.3471C19.4762 36.2181 18.9971 36.0196 18.5549 35.7574C18.3565 35.6398 18.107 35.6554 17.9241 35.7929L16.7661 36.6688L15.7031 35.6058L16.579 34.4477C16.7179 34.2635 16.7321 34.014 16.6145 33.817C16.3522 33.3747 16.1538 32.8957 16.0248 32.3939C15.9681 32.1714 15.781 32.0055 15.5528 31.9729L14.1142 31.7745V30.2706L15.5528 30.0722C15.781 30.041 15.9667 29.8738 16.0248 29.6512C16.1538 29.1494 16.3522 28.6704 16.6145 28.2281C16.7321 28.0297 16.7179 27.7802 16.579 27.5974L15.7031 26.4393L16.7661 25.3763L17.9241 26.2523C18.1084 26.3912 18.3564 26.4053 18.5549 26.2877C18.9971 26.0255 19.4762 25.8271 19.978 25.6981C20.2005 25.6414 20.3663 25.4543 20.399 25.2261L20.5974 23.7874H22.1013L22.2997 25.2261C22.3309 25.4543 22.4981 25.6399 22.7207 25.6981C23.2224 25.827 23.7015 26.0255 24.1438 26.2877C24.3422 26.4053 24.5903 26.3912 24.7745 26.2523L25.9325 25.3763L26.9956 26.4393L26.1196 27.5974C25.9807 27.7816 25.9665 28.0297 26.0842 28.2281Z" fill="white"/>
<path d="M21.3499 27.4297C19.367 27.4297 17.7554 29.0427 17.7554 31.0242C17.7554 33.0071 19.3684 34.6187 21.3499 34.6187C23.3328 34.6187 24.9444 33.0057 24.9444 31.0242C24.9444 29.0413 23.3314 27.4297 21.3499 27.4297ZM21.3499 33.485C19.992 33.485 18.8893 32.3809 18.8893 31.0244C18.8893 29.6666 19.9935 28.5638 21.3499 28.5638C22.7078 28.5638 23.8105 29.668 23.8105 31.0244C23.8105 32.3823 22.7063 33.485 21.3499 33.485Z" fill="white"/>
<path d="M41.0727 20.8972L39.1436 20.6308C39.0047 20.1786 38.8233 19.7392 38.6022 19.3182L39.7744 17.7648C39.9445 17.5394 39.9218 17.2219 39.7234 17.0221L37.6256 14.9243C37.4258 14.7245 37.1083 14.7018 36.8829 14.8733L35.3323 16.0483C34.9184 15.8272 34.4804 15.6458 34.0226 15.504L33.7561 13.575C33.7178 13.2943 33.4783 13.0859 33.1948 13.0859H30.2239C29.9404 13.0859 29.7009 13.2943 29.6626 13.575L29.3961 15.504C28.9397 15.6458 28.5003 15.8272 28.0822 16.0483L26.5358 14.8733C26.3105 14.7018 25.993 14.723 25.7931 14.9229L23.6897 17.0206C23.4884 17.2205 23.4671 17.5394 23.6386 17.7648L24.8165 19.3182C24.5954 19.7392 24.4139 20.1786 24.275 20.6308L22.346 20.8972C22.0653 20.9355 21.8569 21.1751 21.8569 21.4585V21.5266C21.8569 21.8398 22.1106 22.0935 22.4239 22.0935C22.5486 22.0935 22.6649 22.0539 22.7584 21.9844L24.7981 21.7023C25.0263 21.6712 25.2133 21.5039 25.2701 21.2799C25.4231 20.6775 25.6612 20.0978 25.9802 19.5564C26.0964 19.3579 26.0822 19.1099 25.9433 18.927L24.842 17.4728L26.2452 16.0738L27.6938 17.1751C27.8781 17.3155 28.1304 17.3282 28.3274 17.2106C28.8575 16.8931 29.4358 16.6535 30.0481 16.4962C30.2721 16.4395 30.4379 16.2524 30.4691 16.0242L30.7186 14.217H32.7015L32.951 16.0242C32.9822 16.2524 33.1494 16.4381 33.372 16.4962C33.9857 16.6535 34.5626 16.8931 35.0842 17.2091C35.2826 17.3282 35.5349 17.3154 35.7192 17.1751L37.1735 16.0738L38.5724 17.4742L37.4754 18.9284C37.3365 19.1113 37.3223 19.3593 37.4399 19.5578C37.7574 20.0992 37.997 20.6775 38.1501 21.2813C38.2068 21.5053 38.3939 21.6725 38.6221 21.7037L40.4293 21.9532V23.9305L38.6221 24.1799C38.3939 24.2111 38.2068 24.3784 38.1501 24.6023C37.997 25.2047 37.7589 25.7844 37.4399 26.3259C37.3237 26.5243 37.3379 26.771 37.4754 26.9552L38.5724 28.4095L37.1735 29.8099L35.7192 28.7086C35.5349 28.5696 35.2855 28.5555 35.087 28.6731C34.5484 28.9934 33.9701 29.2344 33.3705 29.3875C33.148 29.4442 32.9808 29.6313 32.9496 29.8595L32.7001 31.6667H30.8518C30.5385 31.6667 30.2848 31.9204 30.2848 32.2337C30.2848 32.5469 30.5385 32.8006 30.8518 32.8006H33.1933C33.4768 32.8006 33.7163 32.5923 33.7546 32.3116L34.0211 30.3811C34.4718 30.2408 34.9084 30.0579 35.3294 29.8368L36.8814 31.0133C37.1068 31.1848 37.4243 31.1621 37.6241 30.9623L39.7219 28.8645C39.9217 28.6647 39.9444 28.3486 39.7729 28.1218L38.6007 26.5683C38.8218 26.1473 39.0033 25.708 39.1422 25.2558L41.0713 24.9893C41.3519 24.9511 41.5603 24.7115 41.5603 24.428V21.4628C41.5603 21.1793 41.3519 20.9398 41.0713 20.9015L41.0727 20.8972Z" fill="white"/>
<path d="M35.8784 22.9346C35.8784 20.6341 34.0074 18.7617 31.7056 18.7617C29.4051 18.7617 27.5327 20.6327 27.5327 22.9346C27.5327 25.235 29.4037 27.1074 31.7056 27.1074C34.006 27.1074 35.8784 25.2364 35.8784 22.9346ZM28.6681 22.9346C28.6681 21.2592 30.0316 19.8956 31.707 19.8956C33.3824 19.8956 34.7459 21.2592 34.7459 22.9346C34.7459 24.6099 33.3824 25.9735 31.707 25.9735C30.0316 25.9735 28.6681 24.6099 28.6681 22.9346Z" fill="white"/>
<path d="M10.1095 20.5538C10.2499 21.0074 10.4313 21.4467 10.651 21.8663L9.47879 23.4198C9.3087 23.6451 9.33138 23.9626 9.52982 24.1625L11.6276 26.2602C11.7381 26.3708 11.8827 26.4261 12.0287 26.4261C12.1478 26.4261 12.2697 26.3878 12.3717 26.3113L13.928 25.132C13.9606 25.149 13.9932 25.1646 14.0244 25.1802C14.3065 25.3148 14.6452 25.1958 14.7799 24.9137C14.9145 24.6302 14.7955 24.2929 14.5134 24.1582C14.3943 24.1015 14.2767 24.0335 14.1576 23.9669C13.9606 23.8563 13.7168 23.8719 13.5354 24.008L12.0812 25.1107L10.6822 23.7103L11.7792 22.2561C11.9181 22.0732 11.9323 21.8252 11.8147 21.6267C11.4986 21.0895 11.2591 20.5098 11.1046 19.9032C11.0479 19.6792 10.8608 19.5134 10.6326 19.4822L8.82535 19.2327V17.254L10.634 16.9989C10.8608 16.9663 11.0478 16.8005 11.1046 16.5779C11.2605 15.9684 11.4986 15.3902 11.8132 14.8614C11.9309 14.663 11.9167 14.4135 11.7778 14.2307L10.6808 12.7764L12.0812 11.376L13.5354 12.4731C13.7197 12.612 13.9691 12.6262 14.1662 12.5085C14.6963 12.1939 15.2732 11.9557 15.8827 11.7998C16.1066 11.7431 16.2724 11.556 16.3036 11.3278L16.5531 9.52061H18.536L18.7855 11.3278C18.8167 11.556 18.9839 11.7417 19.2065 11.7998C19.8131 11.9557 20.3928 12.1938 20.9315 12.5099C21.1299 12.6262 21.378 12.612 21.5608 12.4731L23.0094 11.376L24.4126 12.7764L23.3113 14.2307C23.1724 14.4135 23.1582 14.6616 23.2744 14.86C23.3623 15.0103 23.4445 15.1633 23.5168 15.3178C23.6501 15.6013 23.9874 15.7246 24.2709 15.5914C24.5544 15.4582 24.6763 15.1208 24.5444 14.8373C24.5104 14.7651 24.475 14.6928 24.4381 14.6219L25.616 13.067C25.7875 12.8416 25.7648 12.5227 25.565 12.3228L23.4615 10.2251C23.2603 10.0252 22.9442 10.004 22.7188 10.1741L21.171 11.3463C20.7515 11.1266 20.312 10.9451 19.8585 10.8048L19.592 8.87574C19.5537 8.59509 19.3142 8.38672 19.0307 8.38672H16.0598C15.7763 8.38672 15.5368 8.59508 15.4985 8.87574L15.232 10.8048C14.7771 10.9452 14.3391 11.1252 13.9238 11.3449L12.3703 10.1727C12.1435 10.0026 11.8274 10.0252 11.6276 10.2237L9.52984 12.3214C9.32998 12.5213 9.3073 12.8374 9.47881 13.0642L10.651 14.6176C10.4327 15.0343 10.2513 15.4723 10.111 15.9273L8.18048 16.1994C7.90125 16.2391 7.69287 16.4787 7.69287 16.7608V19.726C7.69287 20.0095 7.90123 20.249 8.18189 20.2873L10.111 20.5537L10.1095 20.5538Z" fill="white"/>
<path d="M17.5474 14.0664C15.2469 14.0664 13.3745 15.9374 13.3745 18.2392C13.3745 20.5397 15.2455 22.4121 17.5474 22.4121C19.8478 22.4121 21.7202 20.5411 21.7202 18.2392C21.7202 15.9388 19.8492 14.0664 17.5474 14.0664ZM17.5474 21.2767C15.872 21.2767 14.5084 19.9132 14.5084 18.2378C14.5084 16.5624 15.872 15.1989 17.5474 15.1989C19.2227 15.1989 20.5863 16.5624 20.5863 18.2378C20.5863 19.9132 19.2227 21.2767 17.5474 21.2767Z" fill="white"/>
</svg>
